<svg id="Layer_1" data-name="Layer 1" xmlns="http://www.w3.org/2000/svg" viewBox="0 0 286 128"><defs><style>.cls-1{fill:#c646c6;}.cls-2{fill:#e06241;}.cls-3{fill:#fbb040;}.cls-4{fill:#325eea;}.cls-5{fill:#414042;}.cls-6{fill:#6d6e71;}</style></defs><circle class="cls-1" cx="22.54" cy="13.71" r="12.71" transform="translate(-2.55 5.55) rotate(-13.28)"/><path class="cls-1" d="M22,33.77c-11.4.31-20.34,9.95-20.34,21.35V75.61H43.47V54.68A20.92,20.92,0,0,0,22,33.77Z"/><circle class="cls-2" cx="56.17" cy="13.71" r="12.71" transform="translate(6.76 43.74) rotate(-45)"/><path class="cls-2" d="M55.59,33.77a20.36,20.36,0,0,0-12.27,4.52A26.19,26.19,0,0,1,49,54.68V75.61H77.1V54.68A20.92,20.92,0,0,0,55.59,33.77Z"/><circle class="cls-3" cx="89.81" cy="13.71" r="12.71" transform="translate(-0.75 21) rotate(-13.28)"/><path class="cls-3" d="M89.22,33.77A20.43,20.43,0,0,0,77,38.28a26.23,26.23,0,0,1,5.7,16.4V75.61h28.08V54.68A20.91,20.91,0,0,0,89.22,33.77Z"/><path class="cls-4" d="M1.61,81.15V98.08a3.48,3.48,0,0,0,3.47,3.47h37.5L53,125a3.47,3.47,0,0,0,6.33,0l10.43-23.4h37.5a3.47,3.47,0,0,0,3.46-3.47V81.15Z"/><path class="cls-5" d="M158,75.2,145.25,57.35V75.2h-5.49V47.93h5.49L158,65.78V47.93h5.49V75.2Z"/><path class="cls-5" d="M186.89,55.26V75.2h-5.41V72.5a6.74,6.74,0,0,1-2.54,2.35,7,7,0,0,1-3.27.76,6.19,6.19,0,0,1-3.28-.82,6.55,6.55,0,0,1-2.19-2.19,9.62,9.62,0,0,1-1.2-3.19,18.81,18.81,0,0,1-.37-3.79V55.26h5.61v10.4a8.89,8.89,0,0,0,.75,4.1,2.81,2.81,0,0,0,2.69,1.39,3.81,3.81,0,0,0,2.12-.58,5.36,5.36,0,0,0,1.48-1.35v-14Z"/><path class="cls-5" d="M192.17,46.3h5.61V56.9A7.16,7.16,0,0,1,200,55.43a7.38,7.38,0,0,1,3.11-.58,8,8,0,0,1,3.54.76,7.76,7.76,0,0,1,2.68,2.11A9.65,9.65,0,0,1,211,61a13.46,13.46,0,0,1,.59,4.1,12.51,12.51,0,0,1-.69,4.23,9.09,9.09,0,0,1-2.09,3.36,9.49,9.49,0,0,1-3.5,2.19,14.09,14.09,0,0,1-4.89.78,19.47,19.47,0,0,1-4.38-.49,20.24,20.24,0,0,1-3.85-1.31Zm9.33,12.89a5.46,5.46,0,0,0-3.72,1.36V70.94a4.32,4.32,0,0,0,1.18.37,9,9,0,0,0,1.52.12A6,6,0,0,0,203,71a4.44,4.44,0,0,0,1.7-1.31,5.81,5.81,0,0,0,1-2,9.85,9.85,0,0,0,.3-2.5,7.73,7.73,0,0,0-1.08-4.29A3.75,3.75,0,0,0,201.5,59.19Z"/><path class="cls-5" d="M224.3,54.85a9.39,9.39,0,0,1,3.51.62,6.81,6.81,0,0,1,2.55,1.74,7.37,7.37,0,0,1,1.56,2.7,10.88,10.88,0,0,1,.53,3.54,13.32,13.32,0,0,1-.1,1.66,9.18,9.18,0,0,1-.31,1.53H220.21a5.11,5.11,0,0,0,1.35,3.49,5.47,5.47,0,0,0,4.06,1.3,16.81,16.81,0,0,0,3.11-.29,11.73,11.73,0,0,0,2.7-.85l.7,3.8a13.54,13.54,0,0,1-3.36,1.13,19.15,19.15,0,0,1-3.89.39,12.3,12.3,0,0,1-4.42-.74,9,9,0,0,1-3.26-2.09,8.81,8.81,0,0,1-2-3.25,12,12,0,0,1-.7-4.2,12.77,12.77,0,0,1,.68-4.28,9.23,9.23,0,0,1,1.94-3.31,8.64,8.64,0,0,1,3.09-2.13A10.53,10.53,0,0,1,224.3,54.85ZM224,58.62a3.1,3.1,0,0,0-2.64,1.21,5.7,5.7,0,0,0-1.09,3.05h6.84a4.59,4.59,0,0,0-.57-3.09A2.83,2.83,0,0,0,224,58.62Z"/><path class="cls-5" d="M241.87,69.43a2.16,2.16,0,0,0,.39,1.41,1.65,1.65,0,0,0,1.33.47,7.28,7.28,0,0,0,.78,0c.27,0,.53-.07.77-.12l.21,3.93a12.74,12.74,0,0,1-1.72.34,13.8,13.8,0,0,1-2,.15,6.16,6.16,0,0,1-2.54-.47,4.5,4.5,0,0,1-1.65-1.27,4.63,4.63,0,0,1-.9-1.8,7.94,7.94,0,0,1-.27-2.07V46.3h5.61Z"/><path class="cls-5" d="M259.68,73.07a10,10,0,0,1-2.66,1.8,8.37,8.37,0,0,1-3.61.74,6.21,6.21,0,0,1-2.37-.43,5.15,5.15,0,0,1-1.8-1.19,5.35,5.35,0,0,1-1.15-1.78,6,6,0,0,1-.41-2.25,5,5,0,0,1,1.84-4.18,9,9,0,0,1,5-1.63c.82-.06,1.66-.1,2.54-.13l2.37-.08v-.7a4.1,4.1,0,0,0-.94-2.92,3.87,3.87,0,0,0-2.95-1,11.66,11.66,0,0,0-2.94.37,11.06,11.06,0,0,0-2.46,1l-1.11-3.94a14,14,0,0,1,3.44-1.37,16.93,16.93,0,0,1,4.06-.47A8.69,8.69,0,0,1,262.81,57q2.26,2.17,2.27,6.43V75.2h-5.4Zm-4.22-1.27a5.75,5.75,0,0,0,2.21-.41,7.14,7.14,0,0,0,1.8-1V67.22l-1.84.16c-.65.05-1.25.12-1.8.2a5.47,5.47,0,0,0-2,.68,1.72,1.72,0,0,0-.73,1.58,1.76,1.76,0,0,0,.63,1.47A2.7,2.7,0,0,0,255.46,71.8Z"/><path class="cls-6" d="M150.39,14.38a17.42,17.42,0,0,1,2.89.26,12.23,12.23,0,0,1,2.51.69l-.46,2.18a17,17,0,0,0-2.24-.6,12.83,12.83,0,0,0-2.36-.23,8.1,8.1,0,0,0-6,2.15A8.33,8.33,0,0,0,142.59,25a8.34,8.34,0,0,0,2.15,6.15,8.1,8.1,0,0,0,6,2.14,12,12,0,0,0,2.36-.23,15.56,15.56,0,0,0,2.24-.59l.46,2.18a12.23,12.23,0,0,1-2.51.69,17.42,17.42,0,0,1-2.89.26,12,12,0,0,1-4.5-.8,9.38,9.38,0,0,1-3.33-2.21,9.65,9.65,0,0,1-2.07-3.35,12.65,12.65,0,0,1,0-8.47,9.65,9.65,0,0,1,2.07-3.35,9.38,9.38,0,0,1,3.33-2.21A12,12,0,0,1,150.39,14.38Z"/><path class="cls-6" d="M172.1,27.83a9,9,0,0,1-.48,3,7.3,7.3,0,0,1-1.4,2.44A6.62,6.62,0,0,1,168,34.89a7.74,7.74,0,0,1-6.07,0,6.78,6.78,0,0,1-2.24-1.67,7.28,7.28,0,0,1-1.39-2.44,9.31,9.31,0,0,1,0-5.9,7.28,7.28,0,0,1,1.39-2.44,6.65,6.65,0,0,1,2.24-1.67,7.74,7.74,0,0,1,6.07,0,6.49,6.49,0,0,1,2.25,1.67,7.3,7.3,0,0,1,1.4,2.44A9,9,0,0,1,172.1,27.83Zm-2.77,0a8.33,8.33,0,0,0-.27-2.15,5.76,5.76,0,0,0-.82-1.77,3.78,3.78,0,0,0-1.36-1.18,4.27,4.27,0,0,0-1.94-.43,4.22,4.22,0,0,0-1.93.43,3.9,3.9,0,0,0-1.37,1.18,5.52,5.52,0,0,0-.81,1.77,7.92,7.92,0,0,0-.28,2.15,7.79,7.79,0,0,0,.28,2.16,5.32,5.32,0,0,0,.81,1.75A3.83,3.83,0,0,0,163,32.93a4.22,4.22,0,0,0,1.93.43,4.27,4.27,0,0,0,1.94-.43,3.72,3.72,0,0,0,1.36-1.19,5.54,5.54,0,0,0,.82-1.75A8.19,8.19,0,0,0,169.33,27.83Z"/><path class="cls-6" d="M175,28.44v-2.3h7.53v2.3Z"/><path class="cls-6" d="M204.46,31.48,209,14.75h2.74L205.87,35.2h-2.79L198,17.45,192.82,35.2H190l-5.84-20.45h2.74l4.51,16.73,4.91-16.73h3.2Z"/><path class="cls-6" d="M227.06,27.83a9,9,0,0,1-.48,3,7.28,7.28,0,0,1-1.39,2.44,6.76,6.76,0,0,1-2.26,1.67,7.71,7.71,0,0,1-6.06,0,6.82,6.82,0,0,1-2.25-1.67,7.28,7.28,0,0,1-1.39-2.44,9.31,9.31,0,0,1,0-5.9,7.28,7.28,0,0,1,1.39-2.44,6.69,6.69,0,0,1,2.25-1.67,7.71,7.71,0,0,1,6.06,0,6.63,6.63,0,0,1,2.26,1.67,7.28,7.28,0,0,1,1.39,2.44A9,9,0,0,1,227.06,27.83Zm-2.76,0a8.33,8.33,0,0,0-.28-2.15,5.75,5.75,0,0,0-.81-1.77,3.9,3.9,0,0,0-1.37-1.18,4.57,4.57,0,0,0-3.87,0,3.9,3.9,0,0,0-1.37,1.18,5.75,5.75,0,0,0-.81,1.77,8.33,8.33,0,0,0-.28,2.15,8.18,8.18,0,0,0,.28,2.16,5.53,5.53,0,0,0,.81,1.75A3.83,3.83,0,0,0,218,32.93a4.57,4.57,0,0,0,3.87,0,3.83,3.83,0,0,0,1.37-1.19A5.53,5.53,0,0,0,224,30,8.18,8.18,0,0,0,224.3,27.83Z"/><path class="cls-6" d="M238.88,22.73h-.7a6,6,0,0,0-2.81.62,5.19,5.19,0,0,0-2,2V35.2h-2.76V20.46h2.64v2.83A5.33,5.33,0,0,1,234.94,21a4.67,4.67,0,0,1,2.8-.76,3.71,3.71,0,0,1,1.14.15Z"/><path class="cls-6" d="M241.68,35.2V13.52h2.76V27.43l5.89-7h3.2l-6.24,7.25,6.76,7.49H250.7l-6.26-7.31V35.2Z"/><path class="cls-6" d="M274.68,23a7.18,7.18,0,0,1,1.78.23,6.42,6.42,0,0,1,1.57.6l-.8,4.57a4.58,4.58,0,0,0-.09.86,2.21,2.21,0,0,0,.4,1.41,1.5,1.5,0,0,0,1.29.53,2.63,2.63,0,0,0,1.41-.42,3.76,3.76,0,0,0,1.17-1.15,6.33,6.33,0,0,0,.78-1.72,7.54,7.54,0,0,0,.29-2.12,6.6,6.6,0,0,0-.6-2.84,6.16,6.16,0,0,0-1.66-2.15,7.65,7.65,0,0,0-2.51-1.35A10.25,10.25,0,0,0,274.5,19a10.46,10.46,0,0,0-3.85.69,8.88,8.88,0,0,0-3.06,2,9.08,9.08,0,0,0-2,3.09,10.7,10.7,0,0,0-.73,4.05A8.25,8.25,0,0,0,267.14,35a9.11,9.11,0,0,0,6.56,2.22,15,15,0,0,0,3.9-.47,21.63,21.63,0,0,0,3.62-1.34l.56,1.57a12.37,12.37,0,0,1-1.88.81,17.39,17.39,0,0,1-2.09.6,17.74,17.74,0,0,1-2.14.37,18.73,18.73,0,0,1-2.06.12A13,13,0,0,1,269,38.1,9.53,9.53,0,0,1,265.67,36a8.94,8.94,0,0,1-2.09-3.18,10.89,10.89,0,0,1-.72-4,12.16,12.16,0,0,1,.89-4.71,10.55,10.55,0,0,1,2.46-3.64,11,11,0,0,1,3.71-2.33,12.74,12.74,0,0,1,4.67-.83,11.94,11.94,0,0,1,4.07.66,9.19,9.19,0,0,1,3.08,1.79,8,8,0,0,1,2.65,6,8.75,8.75,0,0,1-.43,2.75,7.19,7.19,0,0,1-1.19,2.21A5.67,5.67,0,0,1,281,32.16a4.93,4.93,0,0,1-2.32.55,3.22,3.22,0,0,1-2.41-.86,3,3,0,0,1-.9-2,6.44,6.44,0,0,1-1.6,2,3.21,3.21,0,0,1-2,.75,2.2,2.2,0,0,1-1.15-.28,2.27,2.27,0,0,1-.77-.74,3.36,3.36,0,0,1-.42-1.06,5,5,0,0,1-.14-1.24,8.18,8.18,0,0,1,.33-2.32,6.08,6.08,0,0,1,1-2,5.11,5.11,0,0,1,1.72-1.4A5.18,5.18,0,0,1,274.68,23Zm-.12,1.69a2.56,2.56,0,0,0-1.44.4,3.3,3.3,0,0,0-1,1,4.9,4.9,0,0,0-.62,1.44,6.81,6.81,0,0,0-.2,1.6,2.89,2.89,0,0,0,.23,1.2.81.81,0,0,0,.79.49,1.51,1.51,0,0,0,.8-.26,4.18,4.18,0,0,0,.78-.71,9.27,9.27,0,0,0,.74-1,9.52,9.52,0,0,0,.62-1.13l.53-2.92A4.59,4.59,0,0,0,274.56,24.67Z"/></svg>