<?xml version="1.0" encoding="utf-8"?>
<!-- Generator: Adobe Illustrator 24.3.0, SVG Export Plug-In . SVG Version: 6.00 Build 0)  -->
<svg version="1.1" id="logo" xmlns="http://www.w3.org/2000/svg" xmlns:xlink="http://www.w3.org/1999/xlink" x="0px" y="0px"
	 viewBox="0 0 210 82.2" style="enable-background:new 0 0 210 82.2;" xml:space="preserve">
<style type="text/css">
	.st0{fill:#455868;}
</style>
<path class="st0" d="M198.7,56.1c0,8.9-7.8,15-7.8,10.8c0-1.7,0-22.2,0-28.3c0-3-7.7-2.4-6.9,0.9c-0.1,0.1,0,0-0.1,0.1
	c-2.1-2.3-4.8-3.6-7.8-3.6c-7.3,0-13.7,7.8-14.3,17.5c-0.1,2.4,0.1,4.8,0.6,6.9c-2.6,4.2-11.6,11.2-13.5-4.2
	c1.2-2.3,8.6-16.4,10.4-21.5c1.8-5.1,3.5-11.4,2.3-16.9c-1-4.5-6-7.9-10.6-7c-15.3,3-9.3,38.4-8.7,41.9c-2.4,4.4-5.6,9.9-10.2,12.3
	c-2.8,1.5-6.6,1.3-9.9-3.3c6.9-3.7,18.5-14.2,11.5-23.5c-3.1-4.2-9-4.6-12.7-2.2c-7,4.4-9.4,16.2-6.4,24.6
	c-3.3,2.1-5.6,3.5-10.7,5.8c-0.1,0.1-0.2-0.1-0.1-0.2c0.6-0.7,1-1.3,1.2-1.6c2.2-3.2,3.7-7.4,4-11.9c0.7-10-4.7-18.2-12-18.2
	c-4.3,0-8.3,2.8-11,7.2c0-6.8,0-13.6,0-20.3c0-2.2,0-4.4,0-6.7c0-3.5-6.8-5.2-6.8-1.4c0,14.8,0,27,0,41.9c0,5.4-3.1,9.8-5.3,10.6
	c-0.2,0.1-0.4,0-0.4-0.1s0-16.4,0-27.6c0-2-6.8-5.6-6.8-1.8c0,6.4,0.4,13.5-1.4,19.7c-3.6,12.6-11.1,10.9-11.1,6.4
	c0-7.9,0-16.6,0-24.2c0-2.4-6.3-5.1-6.3-2.5c0,7.9,0,22.6,0,24.3c0,3-2.7,6.2-4.5,6.8c-0.2,0.1-0.4,0-0.4-0.2c0-7.2,0-15.8,0-23.2
	c0-5.7-4.7-9.3-10.4-8.8c-4.2,0.4-7.5,3.6-8.4,6.2c0-1.1,0-1,0-2.1c0-0.1,0-0.2-0.1-0.4c-0.1-3.1-4.7-5.2-10.8-2.3
	C8.6,38,5.1,42.2,5,47.3c-0.1,2.4,6.3,5.1,6.3,2.5c0-8.9,6-13.6,6-11.1c0,1.8,0,19.3,0,29.4c0,2,6.8,5.6,6.8,1.8c0-6.4,0-10.3,0-16
	c0-5.2,3.1-12.9,8.3-13.6c2-0.2,4.1,1.4,4.1,3.9c0,7.9,0,15.9,0,23.6c0,1.3,1.8,2.6,3.4,3.2c1.1,0.5,2.3,0.6,3.3,0.3
	c3-0.8,5-3.1,6.3-5.5c0,0,1.8,5.7,7.3,5.7c5.1,0,8.3-4.2,9.8-7.2c0,1.1,0,2.6,0,3.7c0,1.8,3.6,3.5,5.5,3.5c0.6,0,1.1,0,1.6-0.1
	c2.4-0.6,4.1-3.3,5.4-5c0,0.1,0,1.2,0,1.3c0,3.8,6.8,5.7,6.8,1.4c0-0.3,0-0.8,0-1.2c0.6,0.6,1.4,1.1,2.1,1.5
	c4.3,2.4,10.6,2.6,15.9,1.5c5.1-1,9.1-3.2,13.1-5.8c9.2,12.6,21.6,4.1,27.2-3.9c4.3,13.8,15.2,12.5,19.8,3.1
	c2.2,4.1,5.9,7.1,10.1,7.2c3.8,0,7.2-2.6,9.9-6l0,0c-0.1,8,9.4,6.2,12.9,4.5c4.5-2.2,8.1-6.3,8.2-11.5
	C205.1,56.2,198.7,53.5,198.7,56.1z M85.6,54.2c0.7-7.1,5.2-13,10.1-13.2s8.3,5.5,7.6,12.7c-0.7,7.1-5.2,13-10.1,13.2
	S84.9,61.3,85.6,54.2z M126.9,39.9c3.5,0,6.6,8.3-7,16.6C117.2,46.8,123.4,39.9,126.9,39.9z M146.7,46.8c-1.8-25,3.6-30.7,7.4-29.4
	C156.8,18.3,157.8,28.5,146.7,46.8z M183.9,56.8c-1.3,5.3-4.8,9.2-8.5,9.2c-4,0.1-7.9-4.2-7.3-12.2c0.5-6.8,4.5-12.4,9.1-12.4
	C185.8,41.4,185.2,51.5,183.9,56.8z"/>
</svg>
